<mxfile host="app.diagrams.net" modified="2024-06-04T11:50:09.951Z" agent="Mozilla/5.0 (Windows NT 10.0; Win64; x64) AppleWebKit/537.36 (KHTML, like Gecko) Chrome/125.0.0.0 Safari/537.36" etag="S-7IFFuewqOYw3XPvLmF" version="24.4.13" type="device">
  <diagram id="C5RBs43oDa-KdzZeNtuy" name="Page-1">
    <mxGraphModel dx="926" dy="526" grid="1" gridSize="10" guides="0" tooltips="1" connect="0" arrows="1" fold="1" page="1" pageScale="1" pageWidth="1200" pageHeight="5000" math="0" shadow="0">
      <root>
        <mxCell id="WIyWlLk6GJQsqaUBKTNV-0" />
        <mxCell id="WIyWlLk6GJQsqaUBKTNV-1" parent="WIyWlLk6GJQsqaUBKTNV-0" />
        <mxCell id="WIyWlLk6GJQsqaUBKTNV-2" value="" style="rounded=0;html=1;jettySize=auto;orthogonalLoop=1;fontSize=11;endArrow=block;endFill=0;endSize=8;strokeWidth=1;shadow=0;labelBackgroundColor=none;edgeStyle=orthogonalEdgeStyle;" parent="WIyWlLk6GJQsqaUBKTNV-1" source="WIyWlLk6GJQsqaUBKTNV-3" target="WIyWlLk6GJQsqaUBKTNV-6" edge="1">
          <mxGeometry relative="1" as="geometry" />
        </mxCell>
        <mxCell id="WIyWlLk6GJQsqaUBKTNV-3" value="&lt;b&gt;Package &lt;/b&gt;GE_PLN_TRANSFORMATION_CALL" style="rounded=1;whiteSpace=wrap;html=1;fontSize=12;glass=0;strokeWidth=1;shadow=0;" parent="WIyWlLk6GJQsqaUBKTNV-1" vertex="1">
          <mxGeometry x="77.5" y="90" width="285" height="32" as="geometry" />
        </mxCell>
        <mxCell id="WIyWlLk6GJQsqaUBKTNV-4" value="" style="rounded=0;html=1;jettySize=auto;orthogonalLoop=1;fontSize=11;endArrow=block;endFill=0;endSize=8;strokeWidth=1;shadow=0;labelBackgroundColor=none;edgeStyle=orthogonalEdgeStyle;" parent="WIyWlLk6GJQsqaUBKTNV-1" source="WIyWlLk6GJQsqaUBKTNV-6" target="WIyWlLk6GJQsqaUBKTNV-10" edge="1">
          <mxGeometry y="20" relative="1" as="geometry">
            <mxPoint as="offset" />
          </mxGeometry>
        </mxCell>
        <mxCell id="WIyWlLk6GJQsqaUBKTNV-6" value="Declare Variables" style="rhombus;whiteSpace=wrap;html=1;shadow=0;fontFamily=Helvetica;fontSize=12;align=center;strokeWidth=1;spacing=6;spacingTop=-4;" parent="WIyWlLk6GJQsqaUBKTNV-1" vertex="1">
          <mxGeometry x="170" y="170" width="100" height="80" as="geometry" />
        </mxCell>
        <mxCell id="WIyWlLk6GJQsqaUBKTNV-8" value="" style="rounded=0;html=1;jettySize=auto;orthogonalLoop=1;fontSize=11;endArrow=block;endFill=0;endSize=8;strokeWidth=1;shadow=0;labelBackgroundColor=none;edgeStyle=orthogonalEdgeStyle;" parent="WIyWlLk6GJQsqaUBKTNV-1" source="WIyWlLk6GJQsqaUBKTNV-10" edge="1">
          <mxGeometry x="0.3333" y="20" relative="1" as="geometry">
            <mxPoint as="offset" />
            <mxPoint x="220" y="410" as="targetPoint" />
          </mxGeometry>
        </mxCell>
        <mxCell id="WIyWlLk6GJQsqaUBKTNV-9" value="Yes" style="edgeStyle=orthogonalEdgeStyle;rounded=0;html=1;jettySize=auto;orthogonalLoop=1;fontSize=11;endArrow=block;endFill=0;endSize=8;strokeWidth=1;shadow=0;labelBackgroundColor=none;fontStyle=1" parent="WIyWlLk6GJQsqaUBKTNV-1" target="WIyWlLk6GJQsqaUBKTNV-12" edge="1">
          <mxGeometry y="10" relative="1" as="geometry">
            <mxPoint as="offset" />
            <mxPoint x="365" y="325" as="sourcePoint" />
          </mxGeometry>
        </mxCell>
        <mxCell id="WIyWlLk6GJQsqaUBKTNV-10" value="&lt;div&gt;&lt;b&gt;Procedure&lt;/b&gt;&lt;/div&gt;&lt;div&gt;&#39;GE_PLN_TRANSFORMATION_FLOW&lt;/div&gt;" style="rhombus;whiteSpace=wrap;html=1;shadow=0;fontFamily=Helvetica;fontSize=12;align=center;strokeWidth=1;spacing=6;spacingTop=-4;" parent="WIyWlLk6GJQsqaUBKTNV-1" vertex="1">
          <mxGeometry x="70" y="290" width="300" height="70" as="geometry" />
        </mxCell>
        <mxCell id="WIyWlLk6GJQsqaUBKTNV-12" value="3 parameters" style="rounded=1;whiteSpace=wrap;html=1;fontSize=12;glass=0;strokeWidth=1;shadow=0;fontStyle=1" parent="WIyWlLk6GJQsqaUBKTNV-1" vertex="1">
          <mxGeometry x="395" y="312.5" width="80" height="25" as="geometry" />
        </mxCell>
        <mxCell id="GBdPL2d_LaVUS0LXEXYl-2" value="Yes" style="edgeStyle=orthogonalEdgeStyle;rounded=0;html=1;jettySize=auto;orthogonalLoop=1;fontSize=11;endArrow=block;endFill=0;endSize=8;strokeWidth=1;shadow=0;labelBackgroundColor=none;" parent="WIyWlLk6GJQsqaUBKTNV-1" source="GBdPL2d_LaVUS0LXEXYl-3" target="GBdPL2d_LaVUS0LXEXYl-4" edge="1">
          <mxGeometry y="10" relative="1" as="geometry">
            <mxPoint as="offset" />
          </mxGeometry>
        </mxCell>
        <mxCell id="GBdPL2d_LaVUS0LXEXYl-3" value="Cursor TOTAL_DATA_STREAM&amp;nbsp;(p_activity_name )" style="rhombus;whiteSpace=wrap;html=1;shadow=0;fontFamily=Helvetica;fontSize=12;align=center;strokeWidth=1;spacing=6;spacingTop=-4;" parent="WIyWlLk6GJQsqaUBKTNV-1" vertex="1">
          <mxGeometry x="40" y="408.75" width="360" height="71.25" as="geometry" />
        </mxCell>
        <mxCell id="GBdPL2d_LaVUS0LXEXYl-4" value="Selects enabled data streams from spm rule headers table with the &lt;b&gt;specific activity&lt;/b&gt;" style="rounded=1;whiteSpace=wrap;html=1;fontSize=12;glass=0;strokeWidth=1;shadow=0;" parent="WIyWlLk6GJQsqaUBKTNV-1" vertex="1">
          <mxGeometry x="470" y="425.63" width="250" height="37.5" as="geometry" />
        </mxCell>
        <mxCell id="GBdPL2d_LaVUS0LXEXYl-5" value="" style="rounded=0;html=1;jettySize=auto;orthogonalLoop=1;fontSize=11;endArrow=block;endFill=0;endSize=8;strokeWidth=1;shadow=0;labelBackgroundColor=none;edgeStyle=orthogonalEdgeStyle;" parent="WIyWlLk6GJQsqaUBKTNV-1" edge="1">
          <mxGeometry x="0.3333" y="20" relative="1" as="geometry">
            <mxPoint as="offset" />
            <mxPoint x="220" y="480" as="sourcePoint" />
            <mxPoint x="220" y="530" as="targetPoint" />
          </mxGeometry>
        </mxCell>
        <mxCell id="GBdPL2d_LaVUS0LXEXYl-6" value="Yes" style="edgeStyle=orthogonalEdgeStyle;rounded=0;html=1;jettySize=auto;orthogonalLoop=1;fontSize=11;endArrow=block;endFill=0;endSize=8;strokeWidth=1;shadow=0;labelBackgroundColor=none;" parent="WIyWlLk6GJQsqaUBKTNV-1" source="GBdPL2d_LaVUS0LXEXYl-7" target="GBdPL2d_LaVUS0LXEXYl-8" edge="1">
          <mxGeometry y="10" relative="1" as="geometry">
            <mxPoint as="offset" />
          </mxGeometry>
        </mxCell>
        <mxCell id="GBdPL2d_LaVUS0LXEXYl-7" value="Cursor TOTAL_SPM_ENABLE_STREAM&amp;nbsp;&lt;div&gt;(p_activity_name )&lt;/div&gt;" style="rhombus;whiteSpace=wrap;html=1;shadow=0;fontFamily=Helvetica;fontSize=12;align=center;strokeWidth=1;spacing=6;spacingTop=-4;" parent="WIyWlLk6GJQsqaUBKTNV-1" vertex="1">
          <mxGeometry x="20" y="528.75" width="400" height="71.25" as="geometry" />
        </mxCell>
        <mxCell id="GBdPL2d_LaVUS0LXEXYl-8" value="Selects enabled data streams from spm rule headers table with the specific activity and &lt;b&gt;true SPM flag&lt;/b&gt;" style="rounded=1;whiteSpace=wrap;html=1;fontSize=12;glass=0;strokeWidth=1;shadow=0;" parent="WIyWlLk6GJQsqaUBKTNV-1" vertex="1">
          <mxGeometry x="470" y="545.63" width="290" height="37.5" as="geometry" />
        </mxCell>
        <mxCell id="GBdPL2d_LaVUS0LXEXYl-9" value="" style="rounded=0;html=1;jettySize=auto;orthogonalLoop=1;fontSize=11;endArrow=block;endFill=0;endSize=8;strokeWidth=1;shadow=0;labelBackgroundColor=none;edgeStyle=orthogonalEdgeStyle;" parent="WIyWlLk6GJQsqaUBKTNV-1" edge="1">
          <mxGeometry x="0.3329" y="20" relative="1" as="geometry">
            <mxPoint as="offset" />
            <mxPoint x="220" y="600" as="sourcePoint" />
            <mxPoint x="220" y="640" as="targetPoint" />
          </mxGeometry>
        </mxCell>
        <mxCell id="GBdPL2d_LaVUS0LXEXYl-13" value="BEGIN Block" style="rounded=0;whiteSpace=wrap;html=1;" parent="WIyWlLk6GJQsqaUBKTNV-1" vertex="1">
          <mxGeometry x="180" y="640" width="80" height="30" as="geometry" />
        </mxCell>
        <mxCell id="GBdPL2d_LaVUS0LXEXYl-15" value="" style="rounded=0;html=1;jettySize=auto;orthogonalLoop=1;fontSize=11;endArrow=block;endFill=0;endSize=8;strokeWidth=1;shadow=0;labelBackgroundColor=none;edgeStyle=orthogonalEdgeStyle;" parent="WIyWlLk6GJQsqaUBKTNV-1" edge="1">
          <mxGeometry x="0.3333" y="20" relative="1" as="geometry">
            <mxPoint as="offset" />
            <mxPoint x="220" y="670" as="sourcePoint" />
            <mxPoint x="220" y="720" as="targetPoint" />
          </mxGeometry>
        </mxCell>
        <mxCell id="GBdPL2d_LaVUS0LXEXYl-17" value="Selects VALUE into variable from GE_PLN_SYSTEM_CONTROLS of &lt;b&gt;DEBUG_CONTROL&lt;/b&gt;&lt;div&gt;control type and &lt;b&gt;p_activity_name &lt;/b&gt;activity&lt;/div&gt;" style="rounded=1;whiteSpace=wrap;html=1;fontSize=12;glass=0;strokeWidth=1;shadow=0;" parent="WIyWlLk6GJQsqaUBKTNV-1" vertex="1">
          <mxGeometry x="80" y="720" width="300" height="60" as="geometry" />
        </mxCell>
        <mxCell id="GBdPL2d_LaVUS0LXEXYl-20" value="Exception" style="edgeStyle=orthogonalEdgeStyle;rounded=0;html=1;jettySize=auto;orthogonalLoop=1;fontSize=11;endArrow=block;endFill=0;endSize=8;strokeWidth=1;shadow=0;labelBackgroundColor=none;" parent="WIyWlLk6GJQsqaUBKTNV-1" target="GBdPL2d_LaVUS0LXEXYl-21" edge="1">
          <mxGeometry y="10" relative="1" as="geometry">
            <mxPoint as="offset" />
            <mxPoint x="380" y="750" as="sourcePoint" />
          </mxGeometry>
        </mxCell>
        <mxCell id="GBdPL2d_LaVUS0LXEXYl-21" value="v_debug_status variable = &#39;NO&#39;" style="rounded=1;whiteSpace=wrap;html=1;fontSize=12;glass=0;strokeWidth=1;shadow=0;" parent="WIyWlLk6GJQsqaUBKTNV-1" vertex="1">
          <mxGeometry x="490" y="737.5" width="180" height="25" as="geometry" />
        </mxCell>
        <mxCell id="GBdPL2d_LaVUS0LXEXYl-22" value="" style="rounded=0;html=1;jettySize=auto;orthogonalLoop=1;fontSize=11;endArrow=block;endFill=0;endSize=8;strokeWidth=1;shadow=0;labelBackgroundColor=none;edgeStyle=orthogonalEdgeStyle;" parent="WIyWlLk6GJQsqaUBKTNV-1" edge="1">
          <mxGeometry x="0.3333" y="20" relative="1" as="geometry">
            <mxPoint as="offset" />
            <mxPoint x="220" y="780" as="sourcePoint" />
            <mxPoint x="220" y="830" as="targetPoint" />
          </mxGeometry>
        </mxCell>
        <mxCell id="GBdPL2d_LaVUS0LXEXYl-23" value="v_debug_status variable" style="rounded=1;whiteSpace=wrap;html=1;fontSize=12;glass=0;strokeWidth=1;shadow=0;" parent="WIyWlLk6GJQsqaUBKTNV-1" vertex="1">
          <mxGeometry x="150" y="827.5" width="140" height="20" as="geometry" />
        </mxCell>
        <mxCell id="GBdPL2d_LaVUS0LXEXYl-24" value="Yes" style="edgeStyle=orthogonalEdgeStyle;rounded=0;html=1;jettySize=auto;orthogonalLoop=1;fontSize=11;endArrow=block;endFill=0;endSize=8;strokeWidth=1;shadow=0;labelBackgroundColor=none;" parent="WIyWlLk6GJQsqaUBKTNV-1" target="GBdPL2d_LaVUS0LXEXYl-25" edge="1">
          <mxGeometry y="10" relative="1" as="geometry">
            <mxPoint as="offset" />
            <mxPoint x="290" y="835" as="sourcePoint" />
          </mxGeometry>
        </mxCell>
        <mxCell id="GBdPL2d_LaVUS0LXEXYl-25" value="v_debug_message = &lt;b&gt;Debug mode&lt;/b&gt; is &lt;b&gt;enabled &lt;/b&gt;for the &lt;b&gt;p_activity_name&amp;nbsp;&lt;/b&gt;" style="rounded=1;whiteSpace=wrap;html=1;fontSize=12;glass=0;strokeWidth=1;shadow=0;" parent="WIyWlLk6GJQsqaUBKTNV-1" vertex="1">
          <mxGeometry x="420" y="790" width="390" height="25" as="geometry" />
        </mxCell>
        <mxCell id="GBdPL2d_LaVUS0LXEXYl-26" value="No" style="edgeStyle=orthogonalEdgeStyle;rounded=0;html=1;jettySize=auto;orthogonalLoop=1;fontSize=11;endArrow=block;endFill=0;endSize=8;strokeWidth=1;shadow=0;labelBackgroundColor=none;" parent="WIyWlLk6GJQsqaUBKTNV-1" target="GBdPL2d_LaVUS0LXEXYl-27" edge="1">
          <mxGeometry y="10" relative="1" as="geometry">
            <mxPoint as="offset" />
            <mxPoint x="290" y="840" as="sourcePoint" />
          </mxGeometry>
        </mxCell>
        <mxCell id="GBdPL2d_LaVUS0LXEXYl-27" value="v_debug_message = Debug mode is disabled for the p_activity_name&amp;nbsp;" style="rounded=1;whiteSpace=wrap;html=1;fontSize=12;glass=0;strokeWidth=1;shadow=0;" parent="WIyWlLk6GJQsqaUBKTNV-1" vertex="1">
          <mxGeometry x="500" y="840" width="310" height="32.5" as="geometry" />
        </mxCell>
        <mxCell id="GBdPL2d_LaVUS0LXEXYl-32" value="" style="rounded=0;html=1;jettySize=auto;orthogonalLoop=1;fontSize=11;endArrow=block;endFill=0;endSize=8;strokeWidth=1;shadow=0;labelBackgroundColor=none;edgeStyle=orthogonalEdgeStyle;" parent="WIyWlLk6GJQsqaUBKTNV-1" edge="1">
          <mxGeometry x="0.3333" y="20" relative="1" as="geometry">
            <mxPoint as="offset" />
            <mxPoint x="220" y="847.5" as="sourcePoint" />
            <mxPoint x="220" y="897.5" as="targetPoint" />
          </mxGeometry>
        </mxCell>
        <mxCell id="GBdPL2d_LaVUS0LXEXYl-33" value="&lt;b&gt;SPC&amp;nbsp;&lt;/b&gt;GE_IFACE_SPM_DETAILS&lt;div&gt;.&lt;span style=&quot;background-color: initial;&quot;&gt;GE_IFACE_SPM_INSERT&lt;/span&gt;&lt;/div&gt;" style="rhombus;whiteSpace=wrap;html=1;shadow=0;fontFamily=Helvetica;fontSize=12;align=center;strokeWidth=1;spacing=6;spacingTop=-4;" parent="WIyWlLk6GJQsqaUBKTNV-1" vertex="1">
          <mxGeometry x="75" y="896.25" width="290" height="73.75" as="geometry" />
        </mxCell>
        <mxCell id="GBdPL2d_LaVUS0LXEXYl-34" value="&lt;div&gt;Abbreviations:&lt;/div&gt;SPC: Stored Procedure Call" style="whiteSpace=wrap;html=1;align=center;" parent="WIyWlLk6GJQsqaUBKTNV-1" vertex="1">
          <mxGeometry x="620" y="70" width="180" height="40" as="geometry" />
        </mxCell>
        <mxCell id="GBdPL2d_LaVUS0LXEXYl-35" value="Yes" style="edgeStyle=orthogonalEdgeStyle;rounded=0;html=1;jettySize=auto;orthogonalLoop=1;fontSize=11;endArrow=block;endFill=0;endSize=8;strokeWidth=1;shadow=0;labelBackgroundColor=none;" parent="WIyWlLk6GJQsqaUBKTNV-1" target="GBdPL2d_LaVUS0LXEXYl-36" edge="1">
          <mxGeometry y="10" relative="1" as="geometry">
            <mxPoint as="offset" />
            <mxPoint x="360" y="933.13" as="sourcePoint" />
          </mxGeometry>
        </mxCell>
        <mxCell id="GBdPL2d_LaVUS0LXEXYl-36" value="&lt;div&gt;&#39;execute_transformation&#39;,&amp;nbsp;&lt;span style=&quot;background-color: initial;&quot;&gt;&#39;GE_PLN_TRANSFORMATION&#39;,&amp;nbsp;&lt;/span&gt;&lt;span style=&quot;background-color: initial;&quot;&gt;7 other parameters&lt;/span&gt;&lt;/div&gt;" style="rounded=1;whiteSpace=wrap;html=1;fontSize=12;glass=0;strokeWidth=1;shadow=0;" parent="WIyWlLk6GJQsqaUBKTNV-1" vertex="1">
          <mxGeometry x="390" y="920.63" width="430" height="25" as="geometry" />
        </mxCell>
        <mxCell id="GBdPL2d_LaVUS0LXEXYl-37" value="Exception" style="edgeStyle=orthogonalEdgeStyle;rounded=0;html=1;jettySize=auto;orthogonalLoop=1;fontSize=11;endArrow=block;endFill=0;endSize=8;strokeWidth=1;shadow=0;labelBackgroundColor=none;exitX=1;exitY=0.5;exitDx=0;exitDy=0;entryX=-0.02;entryY=0.44;entryDx=0;entryDy=0;entryPerimeter=0;" parent="WIyWlLk6GJQsqaUBKTNV-1" edge="1">
          <mxGeometry y="10" relative="1" as="geometry">
            <mxPoint as="offset" />
            <mxPoint x="371" y="932.125" as="sourcePoint" />
            <mxPoint x="505" y="970" as="targetPoint" />
            <Array as="points">
              <mxPoint x="391" y="932" />
              <mxPoint x="391" y="969" />
            </Array>
          </mxGeometry>
        </mxCell>
        <mxCell id="GBdPL2d_LaVUS0LXEXYl-38" value="SPC cannot be called &amp;amp;&amp;amp; v_debug_message= same" style="rounded=1;whiteSpace=wrap;html=1;fontSize=12;glass=0;strokeWidth=1;shadow=0;" parent="WIyWlLk6GJQsqaUBKTNV-1" vertex="1">
          <mxGeometry x="505" y="960" width="300" height="25" as="geometry" />
        </mxCell>
        <mxCell id="GBdPL2d_LaVUS0LXEXYl-39" value="" style="rounded=0;html=1;jettySize=auto;orthogonalLoop=1;fontSize=11;endArrow=block;endFill=0;endSize=8;strokeWidth=1;shadow=0;labelBackgroundColor=none;edgeStyle=orthogonalEdgeStyle;" parent="WIyWlLk6GJQsqaUBKTNV-1" edge="1">
          <mxGeometry x="0.3333" y="20" relative="1" as="geometry">
            <mxPoint as="offset" />
            <mxPoint x="220" y="970" as="sourcePoint" />
            <mxPoint x="220" y="1020" as="targetPoint" />
          </mxGeometry>
        </mxCell>
        <mxCell id="GBdPL2d_LaVUS0LXEXYl-40" value="Selects count(*) into &lt;b&gt;no. of program_running&lt;/b&gt; from&lt;div&gt;gems_iface_spm_table with p_activity_name and&amp;nbsp;&lt;/div&gt;&lt;div&gt;all &lt;b&gt;status except (Error, Completed)&lt;/b&gt; in last &lt;b&gt;5 hours&lt;/b&gt;&amp;nbsp;&lt;/div&gt;" style="rounded=1;whiteSpace=wrap;html=1;fontSize=12;glass=0;strokeWidth=1;shadow=0;" parent="WIyWlLk6GJQsqaUBKTNV-1" vertex="1">
          <mxGeometry x="80" y="1020" width="300" height="60" as="geometry" />
        </mxCell>
        <mxCell id="GBdPL2d_LaVUS0LXEXYl-41" value="Exception" style="edgeStyle=orthogonalEdgeStyle;rounded=0;html=1;jettySize=auto;orthogonalLoop=1;fontSize=11;endArrow=block;endFill=0;endSize=8;strokeWidth=1;shadow=0;labelBackgroundColor=none;" parent="WIyWlLk6GJQsqaUBKTNV-1" target="GBdPL2d_LaVUS0LXEXYl-42" edge="1">
          <mxGeometry y="10" relative="1" as="geometry">
            <mxPoint as="offset" />
            <mxPoint x="380" y="1050" as="sourcePoint" />
          </mxGeometry>
        </mxCell>
        <mxCell id="GBdPL2d_LaVUS0LXEXYl-42" value="v_debug_status variable = &#39;NO&#39;" style="rounded=1;whiteSpace=wrap;html=1;fontSize=12;glass=0;strokeWidth=1;shadow=0;" parent="WIyWlLk6GJQsqaUBKTNV-1" vertex="1">
          <mxGeometry x="490" y="1037.5" width="180" height="25" as="geometry" />
        </mxCell>
        <mxCell id="GBdPL2d_LaVUS0LXEXYl-44" value="" style="rounded=0;html=1;jettySize=auto;orthogonalLoop=1;fontSize=11;endArrow=block;endFill=0;endSize=8;strokeWidth=1;shadow=0;labelBackgroundColor=none;edgeStyle=orthogonalEdgeStyle;" parent="WIyWlLk6GJQsqaUBKTNV-1" edge="1">
          <mxGeometry x="0.3333" y="20" relative="1" as="geometry">
            <mxPoint as="offset" />
            <mxPoint x="220" y="1080" as="sourcePoint" />
            <mxPoint x="220" y="1130" as="targetPoint" />
          </mxGeometry>
        </mxCell>
        <mxCell id="GBdPL2d_LaVUS0LXEXYl-45" value="if&amp;nbsp;&lt;b&gt;no. of program_running &lt;/b&gt;= 1&lt;b&gt;&amp;nbsp;&lt;/b&gt;" style="rounded=1;whiteSpace=wrap;html=1;fontSize=12;glass=0;strokeWidth=1;shadow=0;" parent="WIyWlLk6GJQsqaUBKTNV-1" vertex="1">
          <mxGeometry x="130" y="1130" width="180" height="30" as="geometry" />
        </mxCell>
        <mxCell id="GBdPL2d_LaVUS0LXEXYl-46" value="Yes" style="edgeStyle=orthogonalEdgeStyle;rounded=0;html=1;jettySize=auto;orthogonalLoop=1;fontSize=11;endArrow=block;endFill=0;endSize=8;strokeWidth=1;shadow=0;labelBackgroundColor=none;" parent="WIyWlLk6GJQsqaUBKTNV-1" target="GBdPL2d_LaVUS0LXEXYl-47" edge="1">
          <mxGeometry x="0.0036" y="10" relative="1" as="geometry">
            <mxPoint as="offset" />
            <mxPoint x="390" y="1215" as="sourcePoint" />
            <mxPoint x="610" y="1210" as="targetPoint" />
            <Array as="points">
              <mxPoint x="390" y="1216" />
              <mxPoint x="500" y="1216" />
              <mxPoint x="500" y="1213" />
            </Array>
          </mxGeometry>
        </mxCell>
        <mxCell id="GBdPL2d_LaVUS0LXEXYl-47" value="Run Before INBD STUB, GE_PLN_REQUEST_SET and end" style="rounded=1;whiteSpace=wrap;html=1;fontSize=12;glass=0;strokeWidth=1;shadow=0;" parent="WIyWlLk6GJQsqaUBKTNV-1" vertex="1">
          <mxGeometry x="450" y="1160" width="370" height="25" as="geometry" />
        </mxCell>
        <mxCell id="GBdPL2d_LaVUS0LXEXYl-49" value="" style="rounded=0;html=1;jettySize=auto;orthogonalLoop=1;fontSize=11;endArrow=block;endFill=0;endSize=8;strokeWidth=1;shadow=0;labelBackgroundColor=none;edgeStyle=orthogonalEdgeStyle;" parent="WIyWlLk6GJQsqaUBKTNV-1" edge="1">
          <mxGeometry x="0.3333" y="20" relative="1" as="geometry">
            <mxPoint as="offset" />
            <mxPoint x="220" y="1160" as="sourcePoint" />
            <mxPoint x="220" y="1200" as="targetPoint" />
          </mxGeometry>
        </mxCell>
        <mxCell id="GBdPL2d_LaVUS0LXEXYl-50" value="process status not Error(E)" style="rounded=1;whiteSpace=wrap;html=1;fontSize=12;glass=0;strokeWidth=1;shadow=0;" parent="WIyWlLk6GJQsqaUBKTNV-1" vertex="1">
          <mxGeometry x="80" y="1200" width="310" height="30" as="geometry" />
        </mxCell>
        <mxCell id="R-g4ldk1lQtbYMYM_CFi-2" value="" style="rounded=0;html=1;jettySize=auto;orthogonalLoop=1;fontSize=11;endArrow=block;endFill=0;endSize=8;strokeWidth=1;shadow=0;labelBackgroundColor=none;edgeStyle=orthogonalEdgeStyle;" edge="1" parent="WIyWlLk6GJQsqaUBKTNV-1">
          <mxGeometry x="0.3333" y="20" relative="1" as="geometry">
            <mxPoint as="offset" />
            <mxPoint x="650" y="1180" as="sourcePoint" />
            <mxPoint x="650" y="1230" as="targetPoint" />
          </mxGeometry>
        </mxCell>
        <mxCell id="R-g4ldk1lQtbYMYM_CFi-3" value="STUB execution is started for &lt;b&gt;INBD to PRSD flow&lt;/b&gt; for p_activity_name" style="rounded=1;whiteSpace=wrap;html=1;fontSize=12;glass=0;strokeWidth=1;shadow=0;" vertex="1" parent="WIyWlLk6GJQsqaUBKTNV-1">
          <mxGeometry x="560" y="1230" width="200" height="30" as="geometry" />
        </mxCell>
        <mxCell id="R-g4ldk1lQtbYMYM_CFi-6" value="" style="rounded=0;html=1;jettySize=auto;orthogonalLoop=1;fontSize=11;endArrow=block;endFill=0;endSize=8;strokeWidth=1;shadow=0;labelBackgroundColor=none;edgeStyle=orthogonalEdgeStyle;" edge="1" parent="WIyWlLk6GJQsqaUBKTNV-1">
          <mxGeometry x="0.3333" y="20" relative="1" as="geometry">
            <mxPoint as="offset" />
            <mxPoint x="655" y="1260" as="sourcePoint" />
            <mxPoint x="655" y="1310" as="targetPoint" />
          </mxGeometry>
        </mxCell>
        <mxCell id="R-g4ldk1lQtbYMYM_CFi-7" value="&lt;b&gt;GE_IFACE_SPM_DETAILS.&lt;/b&gt;&lt;div&gt;&lt;b&gt;GE_IFACE_SPM_UPDATE&lt;/b&gt;&lt;/div&gt;" style="rhombus;whiteSpace=wrap;html=1;shadow=0;fontFamily=Helvetica;fontSize=12;align=center;strokeWidth=1;spacing=6;spacingTop=-4;" vertex="1" parent="WIyWlLk6GJQsqaUBKTNV-1">
          <mxGeometry x="510" y="1308.75" width="290" height="73.75" as="geometry" />
        </mxCell>
        <mxCell id="R-g4ldk1lQtbYMYM_CFi-8" value="Exception" style="edgeStyle=orthogonalEdgeStyle;rounded=0;html=1;jettySize=auto;orthogonalLoop=1;fontSize=11;endArrow=block;endFill=0;endSize=8;strokeWidth=1;shadow=0;labelBackgroundColor=none;" edge="1" parent="WIyWlLk6GJQsqaUBKTNV-1">
          <mxGeometry y="10" relative="1" as="geometry">
            <mxPoint as="offset" />
            <mxPoint x="795" y="1345.63" as="sourcePoint" />
            <mxPoint x="870" y="1346" as="targetPoint" />
            <Array as="points">
              <mxPoint x="830" y="1346" />
              <mxPoint x="830" y="1346" />
            </Array>
          </mxGeometry>
        </mxCell>
        <mxCell id="R-g4ldk1lQtbYMYM_CFi-10" value="Procedure cannot be called, Error in program id &lt;b&gt;p_sequence&lt;/b&gt;." style="rounded=1;whiteSpace=wrap;html=1;fontSize=12;glass=0;strokeWidth=1;shadow=0;" vertex="1" parent="WIyWlLk6GJQsqaUBKTNV-1">
          <mxGeometry x="870" y="1330" width="180" height="30" as="geometry" />
        </mxCell>
        <mxCell id="R-g4ldk1lQtbYMYM_CFi-11" value="" style="rounded=0;html=1;jettySize=auto;orthogonalLoop=1;fontSize=11;endArrow=block;endFill=0;endSize=8;strokeWidth=1;shadow=0;labelBackgroundColor=none;edgeStyle=orthogonalEdgeStyle;" edge="1" parent="WIyWlLk6GJQsqaUBKTNV-1">
          <mxGeometry x="0.3333" y="20" relative="1" as="geometry">
            <mxPoint as="offset" />
            <mxPoint x="660" y="1380" as="sourcePoint" />
            <mxPoint x="660" y="1430" as="targetPoint" />
          </mxGeometry>
        </mxCell>
        <mxCell id="R-g4ldk1lQtbYMYM_CFi-12" value="IF (p_status != &#39;E&#39;)" style="rhombus;whiteSpace=wrap;html=1;shadow=0;fontFamily=Helvetica;fontSize=12;align=center;strokeWidth=1;spacing=6;spacingTop=-4;" vertex="1" parent="WIyWlLk6GJQsqaUBKTNV-1">
          <mxGeometry x="570" y="1428.75" width="190" height="41.25" as="geometry" />
        </mxCell>
        <mxCell id="R-g4ldk1lQtbYMYM_CFi-13" value="" style="rounded=0;html=1;jettySize=auto;orthogonalLoop=1;fontSize=11;endArrow=block;endFill=0;endSize=8;strokeWidth=1;shadow=0;labelBackgroundColor=none;edgeStyle=orthogonalEdgeStyle;" edge="1" parent="WIyWlLk6GJQsqaUBKTNV-1">
          <mxGeometry x="0.3333" y="20" relative="1" as="geometry">
            <mxPoint as="offset" />
            <mxPoint x="240" y="500" as="sourcePoint" />
            <mxPoint x="240" y="550" as="targetPoint" />
          </mxGeometry>
        </mxCell>
        <mxCell id="R-g4ldk1lQtbYMYM_CFi-14" value="Cursor TOTAL_SPM_ENABLE_STREAM&amp;nbsp;&lt;div&gt;(p_activity_name )&lt;/div&gt;" style="rhombus;whiteSpace=wrap;html=1;shadow=0;fontFamily=Helvetica;fontSize=12;align=center;strokeWidth=1;spacing=6;spacingTop=-4;" vertex="1" parent="WIyWlLk6GJQsqaUBKTNV-1">
          <mxGeometry x="40" y="548.75" width="400" height="71.25" as="geometry" />
        </mxCell>
        <mxCell id="R-g4ldk1lQtbYMYM_CFi-15" value="" style="rounded=0;html=1;jettySize=auto;orthogonalLoop=1;fontSize=11;endArrow=block;endFill=0;endSize=8;strokeWidth=1;shadow=0;labelBackgroundColor=none;edgeStyle=orthogonalEdgeStyle;" edge="1" parent="WIyWlLk6GJQsqaUBKTNV-1">
          <mxGeometry x="0.3333" y="20" relative="1" as="geometry">
            <mxPoint as="offset" />
            <mxPoint x="660" y="1470" as="sourcePoint" />
            <mxPoint x="660" y="1510" as="targetPoint" />
          </mxGeometry>
        </mxCell>
        <mxCell id="R-g4ldk1lQtbYMYM_CFi-16" value="&lt;b&gt;PDS.GE_INBD_PRSD_STUB.GE_INBD_PRSD_FLOW&lt;/b&gt;" style="rhombus;whiteSpace=wrap;html=1;shadow=0;fontFamily=Helvetica;fontSize=12;align=center;strokeWidth=1;spacing=6;spacingTop=-4;" vertex="1" parent="WIyWlLk6GJQsqaUBKTNV-1">
          <mxGeometry x="460" y="1508.75" width="400" height="51.25" as="geometry" />
        </mxCell>
        <mxCell id="R-g4ldk1lQtbYMYM_CFi-19" value="Exception" style="edgeStyle=orthogonalEdgeStyle;rounded=0;html=1;jettySize=auto;orthogonalLoop=1;fontSize=11;endArrow=block;endFill=0;endSize=8;strokeWidth=1;shadow=0;labelBackgroundColor=none;" edge="1" parent="WIyWlLk6GJQsqaUBKTNV-1">
          <mxGeometry y="10" relative="1" as="geometry">
            <mxPoint as="offset" />
            <mxPoint x="860" y="1536" as="sourcePoint" />
            <mxPoint x="915" y="1536" as="targetPoint" />
            <Array as="points">
              <mxPoint x="875" y="1536" />
              <mxPoint x="875" y="1536" />
            </Array>
          </mxGeometry>
        </mxCell>
        <mxCell id="R-g4ldk1lQtbYMYM_CFi-20" value="Procedure cannot be called." style="rounded=1;whiteSpace=wrap;html=1;fontSize=12;glass=0;strokeWidth=1;shadow=0;" vertex="1" parent="WIyWlLk6GJQsqaUBKTNV-1">
          <mxGeometry x="915" y="1520" width="155" height="30" as="geometry" />
        </mxCell>
        <mxCell id="R-g4ldk1lQtbYMYM_CFi-21" value="" style="rounded=0;html=1;jettySize=auto;orthogonalLoop=1;fontSize=11;endArrow=block;endFill=0;endSize=8;strokeWidth=1;shadow=0;labelBackgroundColor=none;edgeStyle=orthogonalEdgeStyle;" edge="1" parent="WIyWlLk6GJQsqaUBKTNV-1">
          <mxGeometry x="0.3333" y="20" relative="1" as="geometry">
            <mxPoint as="offset" />
            <mxPoint x="660" y="1560" as="sourcePoint" />
            <mxPoint x="660" y="1610" as="targetPoint" />
          </mxGeometry>
        </mxCell>
        <mxCell id="R-g4ldk1lQtbYMYM_CFi-22" value="IF (p_status != &#39;E&#39;)" style="rhombus;whiteSpace=wrap;html=1;shadow=0;fontFamily=Helvetica;fontSize=12;align=center;strokeWidth=1;spacing=6;spacingTop=-4;" vertex="1" parent="WIyWlLk6GJQsqaUBKTNV-1">
          <mxGeometry x="570" y="1608.75" width="190" height="41.25" as="geometry" />
        </mxCell>
        <mxCell id="R-g4ldk1lQtbYMYM_CFi-23" value="" style="rounded=0;html=1;jettySize=auto;orthogonalLoop=1;fontSize=11;endArrow=block;endFill=0;endSize=8;strokeWidth=1;shadow=0;labelBackgroundColor=none;edgeStyle=orthogonalEdgeStyle;" edge="1" parent="WIyWlLk6GJQsqaUBKTNV-1">
          <mxGeometry x="0.3333" y="20" relative="1" as="geometry">
            <mxPoint as="offset" />
            <mxPoint x="660" y="1650" as="sourcePoint" />
            <mxPoint x="660" y="1690" as="targetPoint" />
          </mxGeometry>
        </mxCell>
        <mxCell id="R-g4ldk1lQtbYMYM_CFi-24" value="&lt;b&gt;GE_INBD_PRSD_STUB &lt;/b&gt;Is &lt;b&gt;Executed &lt;/b&gt;with status" style="rounded=1;whiteSpace=wrap;html=1;fontSize=12;glass=0;strokeWidth=1;shadow=0;" vertex="1" parent="WIyWlLk6GJQsqaUBKTNV-1">
          <mxGeometry x="570" y="1687.5" width="180" height="32.5" as="geometry" />
        </mxCell>
        <mxCell id="R-g4ldk1lQtbYMYM_CFi-25" value="" style="rounded=0;html=1;jettySize=auto;orthogonalLoop=1;fontSize=11;endArrow=block;endFill=0;endSize=8;strokeWidth=1;shadow=0;labelBackgroundColor=none;edgeStyle=orthogonalEdgeStyle;" edge="1" parent="WIyWlLk6GJQsqaUBKTNV-1">
          <mxGeometry x="0.3333" y="20" relative="1" as="geometry">
            <mxPoint as="offset" />
            <mxPoint x="660" y="1720" as="sourcePoint" />
            <mxPoint x="660" y="1760" as="targetPoint" />
          </mxGeometry>
        </mxCell>
        <mxCell id="R-g4ldk1lQtbYMYM_CFi-26" value="&lt;b&gt;GE_IFACE_SPM_DETAILS.&lt;/b&gt;&lt;div&gt;&lt;b&gt;GE_IFACE_SPM_UPDATE_END&lt;/b&gt;&lt;/div&gt;" style="rhombus;whiteSpace=wrap;html=1;shadow=0;fontFamily=Helvetica;fontSize=12;align=center;strokeWidth=1;spacing=6;spacingTop=-4;" vertex="1" parent="WIyWlLk6GJQsqaUBKTNV-1">
          <mxGeometry x="460" y="1758.75" width="400" height="51.25" as="geometry" />
        </mxCell>
        <mxCell id="R-g4ldk1lQtbYMYM_CFi-27" value="Exception" style="edgeStyle=orthogonalEdgeStyle;rounded=0;html=1;jettySize=auto;orthogonalLoop=1;fontSize=11;endArrow=block;endFill=0;endSize=8;strokeWidth=1;shadow=0;labelBackgroundColor=none;" edge="1" parent="WIyWlLk6GJQsqaUBKTNV-1">
          <mxGeometry y="10" relative="1" as="geometry">
            <mxPoint as="offset" />
            <mxPoint x="860" y="1786" as="sourcePoint" />
            <mxPoint x="915" y="1786" as="targetPoint" />
            <Array as="points">
              <mxPoint x="875" y="1786" />
              <mxPoint x="875" y="1786" />
            </Array>
          </mxGeometry>
        </mxCell>
        <mxCell id="R-g4ldk1lQtbYMYM_CFi-28" value="Procedure cannot be called." style="rounded=1;whiteSpace=wrap;html=1;fontSize=12;glass=0;strokeWidth=1;shadow=0;" vertex="1" parent="WIyWlLk6GJQsqaUBKTNV-1">
          <mxGeometry x="915" y="1770" width="155" height="30" as="geometry" />
        </mxCell>
        <mxCell id="R-g4ldk1lQtbYMYM_CFi-29" value="Yes" style="text;html=1;align=center;verticalAlign=middle;resizable=0;points=[];autosize=1;strokeColor=none;fillColor=none;fontSize=11;fontStyle=1" vertex="1" parent="WIyWlLk6GJQsqaUBKTNV-1">
          <mxGeometry x="650" y="1650" width="40" height="30" as="geometry" />
        </mxCell>
        <mxCell id="R-g4ldk1lQtbYMYM_CFi-30" value="Yes" style="text;html=1;align=center;verticalAlign=middle;resizable=0;points=[];autosize=1;strokeColor=none;fillColor=none;" vertex="1" parent="WIyWlLk6GJQsqaUBKTNV-1">
          <mxGeometry x="650" y="1468" width="40" height="30" as="geometry" />
        </mxCell>
        <mxCell id="R-g4ldk1lQtbYMYM_CFi-36" value="" style="rounded=0;html=1;jettySize=auto;orthogonalLoop=1;fontSize=11;endArrow=block;endFill=0;endSize=8;strokeWidth=1;shadow=0;labelBackgroundColor=none;edgeStyle=orthogonalEdgeStyle;" edge="1" parent="WIyWlLk6GJQsqaUBKTNV-1">
          <mxGeometry x="0.3333" y="20" relative="1" as="geometry">
            <mxPoint as="offset" />
            <mxPoint x="660" y="1810" as="sourcePoint" />
            <mxPoint x="660" y="1860" as="targetPoint" />
          </mxGeometry>
        </mxCell>
        <mxCell id="R-g4ldk1lQtbYMYM_CFi-37" value="IF (p_status != &#39;E&#39;)" style="rhombus;whiteSpace=wrap;html=1;shadow=0;fontFamily=Helvetica;fontSize=12;align=center;strokeWidth=1;spacing=6;spacingTop=-4;" vertex="1" parent="WIyWlLk6GJQsqaUBKTNV-1">
          <mxGeometry x="570" y="1858.75" width="190" height="41.25" as="geometry" />
        </mxCell>
        <mxCell id="R-g4ldk1lQtbYMYM_CFi-38" value="" style="rounded=0;html=1;jettySize=auto;orthogonalLoop=1;fontSize=11;endArrow=block;endFill=0;endSize=8;strokeWidth=1;shadow=0;labelBackgroundColor=none;edgeStyle=orthogonalEdgeStyle;" edge="1" parent="WIyWlLk6GJQsqaUBKTNV-1">
          <mxGeometry x="0.3333" y="20" relative="1" as="geometry">
            <mxPoint as="offset" />
            <mxPoint x="660" y="1900" as="sourcePoint" />
            <mxPoint x="660" y="1940" as="targetPoint" />
          </mxGeometry>
        </mxCell>
        <mxCell id="R-g4ldk1lQtbYMYM_CFi-39" value="&lt;b&gt;GE_INBD_PRSD_STUB &lt;/b&gt;Is &lt;b&gt;Executed &lt;/b&gt;with status" style="rounded=1;whiteSpace=wrap;html=1;fontSize=12;glass=0;strokeWidth=1;shadow=0;" vertex="1" parent="WIyWlLk6GJQsqaUBKTNV-1">
          <mxGeometry x="570" y="1937.5" width="180" height="32.5" as="geometry" />
        </mxCell>
        <mxCell id="R-g4ldk1lQtbYMYM_CFi-40" value="Yes" style="text;html=1;align=center;verticalAlign=middle;resizable=0;points=[];autosize=1;strokeColor=none;fillColor=none;fontSize=11;fontStyle=1" vertex="1" parent="WIyWlLk6GJQsqaUBKTNV-1">
          <mxGeometry x="650" y="1900" width="40" height="30" as="geometry" />
        </mxCell>
      </root>
    </mxGraphModel>
  </diagram>
</mxfile>
